<svg xmlns="http://www.w3.org/2000/svg" xmlns:xlink="http://www.w3.org/1999/xlink">
    <defs>
        <!-- Source: https://commons.wikimedia.org/wiki/File:Nextcloud_Logo.svg -->
        <!-- This logo was modified by removing text. -->
        <symbol xmlns="http://www.w3.org/2000/svg" viewBox="0 0 133.892 61" id="nextcloud">
            <path d="M67.048.046c-13.878 0-25.641 9.409-29.287 22.156-3.169-6.761-10.035-11.498-17.944-11.498C8.941 10.704 0 19.644 0 30.52s8.94 19.821 19.817 19.821c7.91 0 14.775-4.74 17.944-11.502C41.407 51.588 53.17 61 67.048 61c13.776 0 25.479-9.27 29.218-21.874 3.227 6.609 10.008 11.216 17.805 11.216 10.876 0 19.821-8.944 19.821-19.821 0-10.876-8.945-19.817-19.821-19.817-7.797 0-14.578 4.605-17.805 11.213C92.526 9.313 80.824.047 67.048.047zm0 11.633c10.477 0 18.846 8.366 18.846 18.842a18.759 18.759 0 0 1-18.846 18.846c-10.476 0-18.842-8.37-18.842-18.846a18.752 18.752 0 0 1 18.842-18.842zm-47.23 10.658c4.59 0 8.187 3.594 8.187 8.184s-3.598 8.188-8.188 8.188c-4.59 0-8.184-3.598-8.184-8.188 0-4.59 3.594-8.184 8.184-8.184zm94.253 0c4.59 0 8.188 3.594 8.188 8.184s-3.598 8.188-8.188 8.188c-4.59 0-8.184-3.598-8.184-8.188 0-4.59 3.594-8.184 8.184-8.184z"/>
        </symbol>
    </defs>
</svg>
